# xmcd
#
# Track frame offsets: 
#        150
#        22752
#        51525
#        77012
#        91415
#        110345
#        133447
#        158350
#        173917
#        189260
#
# Disc length: 2774 seconds
#
# Revision: 4
# Processed by: cddbd v1.5.2PL0 Copyright (c) Steve Scherf et al.
# Submitted via: ExactAudioCopy v0.99pb4
#
DISCID=760ad40a
DTITLE=Lonnie Brooks - Sweet Home Chicago
DYEAR=1975
DGENRE=Blues
TTITLE0=Sweet Home Chicago
TTITLE1=Two Guitars Shuffle
TTITLE2=Crosscut Saw
TTITLE3=Reconsider Baby
TTITLE4=Things I Used To Do
TTITLE5=The Train And The Horse
TTITLE6=Crazy About You Baby
TTITLE7=Big Leg Woman
TTITLE8=Mama Talk To Your Daughter
TTITLE9=Woke Up This Morning
EXTD=Label: Evidence\nCode: ECD 26001-2\nReleased: 1992\n\nThis record
EXTD=ing originally recorded December 8, 1975 in Europe\n\nLonnie Broo
EXTD=ks, guitar and vocals\nHubert Sumlin, guitar\nLittle Mac Simmons, h
EXTD=arp\nWillie Mabon, piano\nDave Myers, bass\nFred Below, drums
EXTT0=
EXTT1=
EXTT2=
EXTT3=Originally recorded by Lowell Fulson in 1957
EXTT4=
EXTT5=
EXTT6=
EXTT7=
EXTT8=
EXTT9=Previously unreleased
PLAYORDER=
